#!OML:ASF E:\id_vita\Project 1\Capture day 1\Session 1\Male1.ASF
:FULLY-SPECIFIED
:DEGREES
974
root 1.70096 14.3986 -1.80119 -281.799 -83.2818 321.065
lowerback 29.8506 1.79141 -3.5365
upperback 8.63695 0.457933 -0.67364
thorax -6.70601 -0.0581549 1.16561
lowerneck -21.7698 1.71861 2.54203
upperneck 18.8414 -0.111929 6.30167
head 9.58719 0.823814 1.76177
rclavicle 2.94201e-014 3.47873e-014
rhumerus 50.0425 28.9475 -58.6459
rradius 33.5191
rwrist 19.8069
rhand -28.5879 26.2405
rfingers 7.12502
rthumb -1.95369 -3.73026
lclavicle 2.94201e-014 3.47873e-014
lhumerus 58.5829 -23.17 38.8525
lradius 25.7931
lwrist -26.199
lhand -41.7235 83.5882
lfingers 7.12502
lthumb -14.6288 246.948
rfemur -42.0831 4.12674 27.4432
rtibia 53.4635
rfoot -45.2175 -10.7572
rtoes 11.3153
lfemur -65.6234 7.97503 -18.2831
ltibia 96.9336
lfoot -28.3993 -1.31261
ltoes 3.00233
975
root 1.62046 14.3435 -1.78499 -281.694 -83.4364 320.738
lowerback 30.0587 1.89514 -3.72205
upperback 8.80968 0.502173 -0.71199
thorax -6.61107 -0.0488325 1.21443
lowerneck -21.5928 1.74833 2.6717
upperneck 18.6709 -0.057381 6.16069
head 9.49397 0.835708 1.6934
rclavicle 4.21423e-014 6.99722e-014
rhumerus 49.8165 28.4811 -59.1308
rradius 33.7551
rwrist 20.7954
rhand -28.6033 26.2801
rfingers 7.12502
rthumb -1.96856 -3.69058
lclavicle 4.21423e-014 6.99722e-014
lhumerus 58.7715 -22.6727 39.3552
lradius 25.5951
lwrist -26.7094
lhand -41.7494 82.8338
lfingers 7.12502
lthumb -14.6537 247.704
rfemur -40.3972 3.52814 27.7714
rtibia 52.3764
rfoot -42.9617 -19.7392
rtoes -6.89632
lfemur -67.4513 7.63831 -18.6412
ltibia 97.4688
lfoot -28.6979 -0.490411
ltoes 2.16974
976
root 1.51319 14.3531 -1.76893 -281.642 -83.3523 320.3
lowerback 30.4497 1.92959 -3.5822
upperback 9.02318 0.539188 -0.724169
thorax -6.55301 -0.046158 1.10677
lowerneck -21.4797 1.69832 2.44207
upperneck 18.5308 -0.0909556 6.38889
head 9.42517 0.824109 1.80155
rclavicle -3.18055e-014 -3.65764e-014
rhumerus 49.7368 28.1521 -59.2315
rradius 34.3041
rwrist 21.0299
rhand -28.5865 26.3003
rfingers 7.12502
rthumb -1.9524 -3.67055
lclavicle -3.18055e-014 -3.65764e-014
lhumerus 58.8257 -22.0782 40.2379
lradius 25.4191
lwrist -27.7524
lhand -41.3914 81.9616
lfingers 7.12502
lthumb -14.3087 248.551
rfemur -39.0843 3.50059 27.7215
rtibia 51.4109
rfoot -44.4041 -16.2789
rtoes -0.576394
lfemur -68.5883 7.35056 -18.6949
ltibia 97.4887
lfoot -29.4625 0.264502
ltoes 1.00841
977
root 1.41606 14.352 -1.74225 -281.874 -83.1073 320.355
lowerback 30.8468 1.87881 -3.13656
upperback 9.09101 0.578192 -0.673091
thorax -6.65977 -0.0329587 0.891744
lowerneck -21.2719 1.61655 1.98632
upperneck 18.3166 -0.132561 6.81222
head 9.3138 0.810929 2.01045
rclavicle 4.77083e-015 -2.36554e-014
rhumerus 49.7804 28.0172 -58.7243
rradius 34.9426
rwrist 20.4631
rhand -28.5955 26.3087
rfingers 7.12502
rthumb -1.96105 -3.66207
lclavicle 4.77083e-015 -2.36554e-014
lhumerus 58.8924 -21.7859 40.8342
lradius 25.5308
lwrist -28.3362
lhand -41.1333 81.9042
lfingers 7.12502
lthumb -14.0601 248.591
rfemur -38.0214 3.22269 27.8843
rtibia 50.3741
rfoot -43.5933 -16.6008
rtoes -4.34338
lfemur -70.1513 6.87989 -18.6444
ltibia 97.4912
lfoot -30.2068 0.498589
ltoes 0.228547
978
root 1.31199 14.3439 -1.72582 -280.737 -82.8476 318.781
lowerback 31.4674 1.9773 -2.82353
upperback 9.1909 0.750565 -0.585911
thorax -6.83667 0.0377033 0.744352
lowerneck -20.6822 1.59408 1.67214
upperneck 17.8151 -0.0933648 7.19598
head 9.0335 0.825894 2.18096
rclavicle -8.74653e-015 2.78299e-015
rhumerus 49.6829 27.7551 -58.681
rradius 35.2833
rwrist 20.3102
rhand -28.6559 26.5729
rfingers 7.12502
rthumb -2.01943 -3.39728
lclavicle -8.74653e-015 2.78299e-015
lhumerus 58.9976 -21.6748 41.0138
lradius 25.8156
lwrist -28.4151
lhand -41.2689 82.162
lfingers 7.12502
lthumb -14.1908 248.343
rfemur -36.6101 3.06131 28.2409
rtibia 49.4573
rfoot -42.7644 -18.0589
rtoes -7.89864
lfemur -71.3859 6.70507 -18.4275
ltibia 97.3333
lfoot -30.6889 0.264099
ltoes 0.982345
979
root 1.20714 14.3278 -1.7078 -281.092 -82.8181 318.87
lowerback 31.9213 2.03069 -2.7611
upperback 9.24048 0.80752 -0.538289
thorax -6.98995 0.0588273 0.738272
lowerneck -19.838 1.58264 1.60421
upperneck 17.0914 -0.00850646 7.24282
head 8.63194 0.833024 2.19173
rclavicle -5.64548e-014 -4.05521e-014
rhumerus 49.6351 27.6388 -58.3984
rradius 35.6846
rwrist 20.1655
rhand -28.6848 26.645
rfingers 7.12502
rthumb -2.04726 -3.32489
lclavicle -5.64548e-014 -4.05521e-014
lhumerus 59.0001 -21.495 41.2839
lradius 26.1079
lwrist -28.6202
lhand -41.323 81.8544
lfingers 7.12502
lthumb -14.2429 248.654
rfemur -35.4233 2.74578 28.2832
rtibia 48.5651
rfoot -42.1883 -19.1048
rtoes -10.1495
lfemur -72.6996 6.24219 -18.4875
ltibia 97.0461
lfoot -31.1156 1.30086
ltoes -2.55291
980
root 1.1013 14.3202 -1.68804 -281.707 -82.9601 319.505
lowerback 32.0744 2.06768 -2.741
upperback 9.26888 0.840116 -0.609833
thorax -7.02708 0.0724961 0.633162
lowerneck -19.1467 1.55384 1.73802
upperneck 16.3764 0.0266732 7.11115
head 8.26664 0.815208 2.10575
rclavicle -3.18055e-015 -6.44062e-014
rhumerus 49.7415 27.4918 -57.6518
rradius 36.2784
rwrist 19.7344
rhand -28.6548 26.6195
rfingers 7.12502
rthumb -2.01828 -3.35069
lclavicle -3.18055e-015 -6.44062e-014
lhumerus 59.1763 -21.4059 41.258
lradius 26.5282
lwrist -28.6554
lhand -41.3476 81.2953
lfingers 7.12502
lthumb -14.2666 249.215
rfemur -34.7767 2.55082 28.0291
rtibia 48.1436
rfoot -42.453 -18.793
rtoes -9.54494
lfemur -74.2187 5.59715 -18.7271
ltibia 96.6743
lfoot -30.6126 1.44567
ltoes -2.53813
981
root 0.993349 14.319 -1.66492 -281.75 -82.9015 319.492
lowerback 32.3439 2.08078 -2.48789
upperback 9.35405 0.909596 -0.601495
thorax -7.05107 0.0984816 0.468971
lowerneck -18.8314 1.53466 1.67238
upperneck 15.9035 0.080288 7.06556
head 8.04975 0.815789 2.09482
rclavicle 3.10104e-014 1.37161e-014
rhumerus 49.903 27.2305 -57.0331
rradius 36.8082
rwrist 19.5691
rhand -28.5927 26.6399
rfingers 7.12502
rthumb -1.95839 -3.33085
lclavicle 3.10104e-014 1.37161e-014
lhumerus 59.2511 -21.1651 41.4932
lradius 27.0915
lwrist -28.7366
lhand -41.7274 80.864
lfingers 7.12502
lthumb -14.6325 249.672
rfemur -34.0868 2.44618 27.9597
rtibia 47.7715
rfoot -42.8728 -17.8749
rtoes -7.90481
lfemur -75.6097 5.02963 -18.7108
ltibia 96.1098
lfoot -31.1534 1.47087
ltoes -1.9752
982
root 0.923638 14.1846 -1.64738 -281.676 -82.7754 319.245
lowerback 33.053 2.1492 -2.3467
upperback 9.06502 0.996795 -0.497469
thorax -6.97566 0.129296 0.421369
lowerneck -18.6961 1.49657 1.51194
upperneck 15.6434 0.100645 7.06722
head 7.93707 0.80839 2.11769
rclavicle 4.77083e-015 1.98785e-015
rhumerus 50.114 27.0038 -56.3806
rradius 37.3882
rwrist 19.2743
rhand -28.5328 26.6409
rfingers 7.12502
rthumb -1.90048 -3.33037
lclavicle 4.77083e-015 1.98785e-015
lhumerus 59.2673 -20.7815 41.8247
lradius 27.7682
lwrist -28.8148
lhand -42.0539 80.5202
lfingers 7.12502
lthumb -14.9471 250.039
rfemur -33.5717 2.32565 28.064
rtibia 47.839
rfoot -43.0423 -18.227
rtoes -8.78948
lfemur -77.7161 4.56249 -18.605
ltibia 96.2109
lfoot -31.5845 1.53121
ltoes -2.02292
983
root 0.811687 14.1753 -1.62702 -281.45 -82.7816 318.777
lowerback 33.6784 2.24417 -2.30757
upperback 9.11859 1.08554 -0.457636
thorax -7.15389 0.161331 0.404655
lowerneck -18.795 1.47174 1.64767
upperneck 15.8255 0.0966562 6.67888
head 8.01414 0.78453 1.96964
rclavicle 3.73715e-014 4.27387e-014
rhumerus 50.1755 26.8586 -55.757
rradius 38.1637
rwrist 18.8276
rhand -28.5171 26.5958
rfingers 7.12502
rthumb -1.88537 -3.37567
lclavicle 3.73715e-014 4.27387e-014
lhumerus 59.3558 -20.5597 41.8457
lradius 28.4716
lwrist -28.6064
lhand -41.9285 80.103
lfingers 7.12502
lthumb -14.8263 250.447
rfemur -32.5925 2.19203 28.0252
rtibia 47.4865
rfoot -43.5818 -19.0122
rtoes -10.2744
lfemur -78.8182 4.24001 -18.6335
ltibia 95.46
lfoot -31.9541 1.32794
ltoes -1.98437
984
root 0.695423 14.169 -1.6106 -280.835 -82.8508 317.95
lowerback 34.2155 2.37307 -2.34808
upperback 9.20339 1.18579 -0.4698
thorax -7.26191 0.197968 0.371925
lowerneck -18.8128 1.51496 1.97878
upperneck 15.8216 0.150758 6.26391
head 8.01471 0.790489 1.78348
rclavicle -2.46493e-014 -5.96354e-015
rhumerus 50.1621 26.689 -55.3249
rradius 38.9664
rwrist 18.4804
rhand -28.5177 26.5695
rfingers 7.12502
rthumb -1.88592 -3.40195
lclavicle -2.46493e-014 -5.96354e-015
lhumerus 59.4908 -20.3592 41.6448
lradius 29.2072
lwrist -28.3821
lhand -41.9237 79.9173
lfingers 7.12502
lthumb -14.8217 250.633
rfemur -31.6282 2.27624 27.8944
rtibia 47.1336
rfoot -44.3279 -19.2767
rtoes -10.4701
lfemur -79.8989 3.99954 -18.6851
ltibia 94.5895
lfoot -31.7446 0.854761
ltoes -1.53793
985
root 0.577986 14.1632 -1.59073 -281.843 -82.8719 318.986
lowerback 34.4934 2.38532 -2.23411
upperback 9.28621 1.21129 -0.500127
thorax -7.27114 0.204398 0.267809
lowerneck -18.5603 1.48437 1.78429
upperneck 15.1331 0.0959351 6.86075
head 7.74456 0.788508 1.99348
rclavicle -2.8625e-014 -3.57812e-015
rhumerus 50.0159 26.3171 -54.8313
rradius 39.8563
rwrist 18.1938
rhand -28.5009 26.5742
rfingers 7.12502
rthumb -1.8697 -3.39735
lclavicle -2.8625e-014 -3.57812e-015
lhumerus 59.7705 -20.1371 41.3105
lradius 29.9426
lwrist -28.1813
lhand -42.3094 80.0463
lfingers 7.12502
lthumb -15.1932 250.531
rfemur -30.8139 2.12102 27.7921
rtibia 46.3502
rfoot -43.336 -20.0206
rtoes -12.5549
lfemur -81.1438 3.46423 -18.7127
ltibia 93.3855
lfoot -32.1699 0.745578
ltoes -0.829645
986
root 0.460331 14.1493 -1.57404 -283.333 -82.9189 320.527
lowerback 34.7472 2.45897 -2.22556
upperback 9.38822 1.28634 -0.450723
thorax -7.25388 0.232116 0.285631
lowerneck -18.0753 1.53782 1.95794
upperneck 14.6569 0.273995 6.38442
head 7.49683 0.820018 1.81421
rclavicle 1.35174e-014 -1.11319e-014
rhumerus 49.7335 25.7848 -54.2078
rradius 40.8505
rwrist 18.0624
rhand -28.5192 26.5957
rfingers 7.12502
rthumb -1.88736 -3.37574
lclavicle 1.35174e-014 -1.11319e-014
lhumerus 60.2481 -19.9776 40.9203
lradius 30.6481
lwrist -27.718
lhand -42.3721 79.8558
lfingers 7.12502
lthumb -15.2536 250.727
rfemur -29.8671 2.28419 27.4351
rtibia 45.5298
rfoot -44.6328 -17.9235
rtoes -7.07657
lfemur -82.3103 2.96444 -18.8469
ltibia 92.1382
lfoot -32.5176 0.999382
ltoes -0.940797
987
root 0.339723 14.1369 -1.55567 -285.026 -83.0773 322.293
lowerback 35.1361 2.40264 -2.1943
upperback 9.32184 1.19003 -0.599581
thorax -7.33525 0.187848 0.136335
lowerneck -17.8942 1.57581 1.95879
upperneck 14.2975 0.323942 6.54824
head 7.34669 0.846412 1.86597
rclavicle -1.59028e-014 4.57205e-015
rhumerus 49.545 25.5171 -53.8109
rradius 41.7049
rwrist 17.7613
rhand -28.5662 26.6054
rfingers 7.12502
rthumb -1.93278 -3.36555
lclavicle -1.59028e-014 4.57205e-015
lhumerus 60.5505 -19.8734 40.2761
lradius 31.3545
lwrist -27.1882
lhand -42.3573 79.543
lfingers 7.12502
lthumb -15.2394 251.038
rfemur -29.1139 2.46088 27.0507
rtibia 44.6791
rfoot -43.6441 -17.1828
rtoes -6.05589
lfemur -83.352 2.49515 -19.1225
ltibia 90.8228
lfoot -32.6246 1.45991
ltoes -1.65822
